#!OML:ASF X:\für Bonn\!DataBase\2005_08_12_Daniel\c3d\Daniel.ASF
:FULLY-SPECIFIED
:DEGREES
408
root 15.8428 1.40755 1.11538 -769.438 -85.6275 -428.271
lowerback 27.1937 -2.88078 0.915953
upperback 7.91532 -4.25148 -0.585342
thorax -6.293 -2.4158 0.218057
lowerneck -8.7629 3.14891 -6.22737
upperneck 1.72371 4.7507 -0.0619209
head 1.89956 2.26218 1.24563
rclavicle 6.20208e-014 -3.02401e-014
rhumerus -47.3792 -26.1974 -59.1579
rradius 9.92371
rwrist 82.2331
rhand -24.0661 -338.968
rfingers 7.12502
rthumb 2.41355 -368.934
lclavicle 6.20208e-014 -3.02401e-014
lhumerus -764.095 23.8541 -654.392
lradius 18.6272
lwrist -58.2493
lhand -9.74074 352.517
lfingers 7.12502
lthumb 16.2333 381.858
rfemur 393.087 22.4558 391.907
rtibia 14.8204
rfoot -29.2154 -33.7745
rtoes 32.9471
lfemur 20.0186 -25.2026 -27.9441
ltibia 32.1007
lfoot 6.43118 22.2102
ltoes 5.3783
409
root 15.8431 1.40463 1.11602 -769.03 -85.6376 -428.634
lowerback 27.1452 -2.8831 0.952589
upperback 7.90068 -4.24223 -0.580457
thorax -6.28766 -2.41007 0.197433
lowerneck -8.85347 3.13303 -6.23551
upperneck 1.81245 4.73858 -0.0149208
head 1.94461 2.25559 1.26609
rclavicle 5.08889e-014 -6.81086e-014
rhumerus -47.567 -26.43 -58.7395
rradius 9.82249
rwrist 82.998
rhand -23.6356 -338.985
rfingers 7.12502
rthumb 2.82928 -368.946
lclavicle 5.08889e-014 -6.81086e-014
lhumerus -764.3 23.7135 -654.419
lradius 18.6308
lwrist -58.37
lhand -9.73331 352.371
lfingers 7.12502
lthumb 16.2405 381.711
rfemur 393.084 22.0128 391.456
rtibia 14.5076
rfoot -29.3877 -33.8613
rtoes 33.1522
lfemur 20.0422 -25.2671 -27.8424
ltibia 32.0693
lfoot 5.64197 22.8306
ltoes 5.51533
410
root 15.8459 1.40194 1.11649 -768.39 -85.6538 -429.223
lowerback 27.0807 -2.8908 1.01744
upperback 7.8902 -4.23334 -0.587497
thorax -6.27261 -2.40448 0.146762
lowerneck -8.9495 3.10793 -6.15485
upperneck 1.91987 4.70823 -0.0188701
head 2.00036 2.23899 1.25466
rclavicle 4.53229e-014 -2.12203e-014
rhumerus -47.7818 -26.6814 -58.3334
rradius 9.78151
rwrist 83.7304
rhand -23.0185 -339.117
rfingers 7.12502
rthumb 3.42525 -369.069
lclavicle 4.53229e-014 -2.12203e-014
lhumerus -764.509 23.5275 -654.462
lradius 18.6465
lwrist -58.4543
lhand -9.71146 352.248
lfingers 7.12502
lthumb 16.2615 381.586
rfemur 392.987 21.3428 390.817
rtibia 14.1962
rfoot -29.094 -33.9892
rtoes 33.0898
lfemur 20.1074 -25.4144 -27.7768
ltibia 32.0103
lfoot 4.73634 23.4437
ltoes 6.0769
411
root 15.8472 1.39934 1.1171 -767.87 -85.6763 -429.695
lowerback 27.0149 -2.89292 1.06885
upperback 7.89106 -4.22084 -0.580009
thorax -6.24223 -2.39787 0.117976
lowerneck -9.02254 3.08717 -6.13388
upperneck 1.97985 4.6856 -0.0127805
head 2.03463 2.22678 1.2554
rclavicle 4.05521e-014 -3.3607e-014
rhumerus -47.9629 -26.8972 -57.8919
rradius 9.7786
rwrist 84.372
rhand -22.2517 -339.232
rfingers 7.12502
rthumb 4.16568 -369.171
lclavicle 4.05521e-014 -3.3607e-014
lhumerus -764.696 23.3316 -654.436
lradius 18.6653
lwrist -58.4666
lhand -9.71164 352.145
lfingers 7.12502
lthumb 16.2613 381.483
rfemur 392.89 20.6404 390.148
rtibia 13.8803
rfoot -28.6431 -34.137
rtoes 32.9202
lfemur 20.1671 -25.5135 -27.6891
ltibia 31.9371
lfoot 3.82708 24.0145
ltoes 6.60461
412
root 15.8486 1.39688 1.11726 -767.502 -85.6972 -430.024
lowerback 26.9768 -2.89062 1.09312
upperback 7.87398 -4.20843 -0.566173
thorax -6.243 -2.39067 0.113885
lowerneck -9.07206 3.06842 -6.08859
upperneck 2.07097 4.66343 -0.0194692
head 2.07573 2.21429 1.24781
rclavicle -3.02153e-014 8.29926e-014
rhumerus -48.1369 -27.1042 -57.4594
rradius 9.79777
rwrist 84.9452
rhand -21.345 -339.357
rfingers 7.12502
rthumb 5.04121 -369.277
lclavicle -3.02153e-014 8.29926e-014
lhumerus -764.9 23.1047 -654.389
lradius 18.6731
lwrist -58.385
lhand -9.68924 352.042
lfingers 7.12502
lthumb 16.2829 381.379
rfemur 392.78 19.8868 389.442
rtibia 13.5764
rfoot -27.9929 -34.3437
rtoes 32.5853
lfemur 20.2863 -25.7148 -27.7031
ltibia 31.8653
lfoot 2.7527 24.6202
ltoes 7.28118
413
root 15.8502 1.39427 1.1177 -767.04 -85.6786 -430.44
lowerback 26.9118 -2.89255 1.11516
upperback 7.87312 -4.2043 -0.569831
thorax -6.21402 -2.38798 0.0924082
lowerneck -9.05017 3.05556 -5.9821
upperneck 2.06945 4.63601 -0.059704
head 2.07505 2.20104 1.21475
rclavicle 7.95139e-015 5.13113e-014
rhumerus -48.3354 -27.316 -57.0035
rradius 9.86369
rwrist 85.3677
rhand -20.4126 -339.503
rfingers 7.12502
rthumb 5.94149 -369.4
lclavicle 7.95139e-015 5.13113e-014
lhumerus -765.079 22.9234 -654.39
lradius 18.6657
lwrist -58.4255
lhand -9.68918 351.954
lfingers 7.12502
lthumb 16.2829 381.29
rfemur 392.715 19.2721 388.853
rtibia 13.2945
rfoot -27.7178 -34.4316
rtoes 32.3552
lfemur 20.3726 -25.9142 -27.7142
ltibia 31.8106
lfoot 1.63584 25.1629
ltoes 8.07086
414
root 15.8507 1.39097 1.11839 -766.65 -85.6902 -430.777
lowerback 26.8628 -2.89327 1.14963
upperback 7.85554 -4.19348 -0.564388
thorax -6.21135 -2.38133 0.073263
lowerneck -9.06345 3.02794 -5.96141
upperneck 2.12166 4.59969 -0.0269928
head 2.09583 2.18382 1.22175
rclavicle -3.49861e-014 5.3411e-014
rhumerus -48.5268 -27.518 -56.5545
rradius 9.94111
rwrist 85.7711
rhand -19.4695 -339.629
rfingers 7.12502
rthumb 6.8519 -369.498
lclavicle -3.49861e-014 5.3411e-014
lhumerus -765.285 22.7875 -654.418
lradius 18.6398
lwrist -58.4798
lhand -9.67537 351.871
lfingers 7.12502
lthumb 16.2962 381.206
rfemur 392.646 18.7237 388.338
rtibia 13.0422
rfoot -27.4754 -34.506
rtoes 32.1529
lfemur 20.4418 -26.0763 -27.699
ltibia 31.7763
lfoot 0.480538 25.6701
ltoes 8.6852
415
root 15.8511 1.3884 1.11858 -766.213 -85.7104 -431.171
lowerback 26.7993 -2.8906 1.1968
upperback 7.85865 -4.17706 -0.572115
thorax -6.18037 -2.37264 0.0291133
lowerneck -9.09728 2.9806 -5.9179
upperneck 2.16756 4.53568 0.0195317
head 2.11941 2.15387 1.2286
rclavicle 8.5875e-014 -1.21706e-013
rhumerus -48.7071 -27.7502 -56.1251
rradius 10.0279
rwrist 86.0508
rhand -18.5615 -339.675
rfingers 7.12502
rthumb 7.72836 -369.514
lclavicle 8.5875e-014 -1.21706e-013
lhumerus -765.454 22.5534 -654.406
lradius 18.6415
lwrist -58.4962
lhand -9.68375 351.758
lfingers 7.12502
lthumb 16.2882 381.094
rfemur 392.613 18.3099 387.963
rtibia 12.8193
rfoot -27.4653 -34.5271
rtoes 32.0813
lfemur 20.5284 -26.2907 -27.7277
ltibia 31.7643
lfoot -0.728833 26.1792
ltoes 9.32834
